<svg fill="none" height="20" viewBox="0 0 119 20" width="119" xmlns="http://www.w3.org/2000/svg" xmlns:xlink="http://www.w3.org/1999/xlink"><title>Open in SageMaker Studio Lab</title><filter id="a" color-interpolation-filters="sRGB" filterUnits="userSpaceOnUse" height="15.806" width="14" x="4" y="1.915"><feFlood flood-opacity="0" result="BackgroundImageFix"/><feColorMatrix in="SourceAlpha" result="hardAlpha" type="matrix" values="0 0 0 0 0 0 0 0 0 0 0 0 0 0 0 0 0 0 127 0"/><feOffset dy="1"/><feComposite in2="hardAlpha" operator="out"/><feColorMatrix type="matrix" values="0 0 0 0 0 0 0 0 0 0 0 0 0 0 0 0 0 0 0.25 0"/><feBlend in2="BackgroundImageFix" mode="normal" result="effect1_dropShadow_3653_93780"/><feBlend in="SourceGraphic" in2="effect1_dropShadow_3653_93780" mode="normal" result="shape"/></filter><filter id="b" color-interpolation-filters="sRGB" filterUnits="userSpaceOnUse" height="10.434" width="24.721" x="22.561" y="6.078"><feFlood flood-opacity="0" result="BackgroundImageFix"/><feColorMatrix in="SourceAlpha" result="hardAlpha" type="matrix" values="0 0 0 0 0 0 0 0 0 0 0 0 0 0 0 0 0 0 127 0"/><feOffset dy="1"/><feComposite in2="hardAlpha" operator="out"/><feColorMatrix type="matrix" values="0 0 0 0 0.00392157 0 0 0 0 0.00392157 0 0 0 0 0.00392157 0 0 0 0.3 0"/><feBlend in2="BackgroundImageFix" mode="normal" result="effect1_dropShadow_3653_93780"/><feBlend in="SourceGraphic" in2="effect1_dropShadow_3653_93780" mode="normal" result="shape"/></filter><filter id="c" color-interpolation-filters="sRGB" filterUnits="userSpaceOnUse" height="8.749" width="51.575" x="60.154" y="5.902"><feFlood flood-opacity="0" result="BackgroundImageFix"/><feColorMatrix in="SourceAlpha" result="hardAlpha" type="matrix" values="0 0 0 0 0 0 0 0 0 0 0 0 0 0 0 0 0 0 127 0"/><feOffset dy="1"/><feComposite in2="hardAlpha" operator="out"/><feColorMatrix type="matrix" values="0 0 0 0 0.00392157 0 0 0 0 0.00392157 0 0 0 0 0.00392157 0 0 0 0.3 0"/><feBlend in2="BackgroundImageFix" mode="normal" result="effect1_dropShadow_3653_93780"/><feBlend in="SourceGraphic" in2="effect1_dropShadow_3653_93780" mode="normal" result="shape"/></filter><linearGradient id="d" gradientUnits="userSpaceOnUse" x1="27" x2="27" y1="0" y2="20"><stop offset="0" stop-color="#5f5f5f"/><stop offset="1" stop-color="#4c4c4c"/></linearGradient><linearGradient id="e" gradientUnits="userSpaceOnUse" x1="32" x2="32" y1="0" y2="20"><stop offset="0" stop-opacity="0"/><stop offset="1" stop-opacity=".15"/></linearGradient><clipPath id="f"><path d="m0 3c0-1.65685 1.34315-3 3-3h113c1.657 0 3 1.34315 3 3v14c0 1.6569-1.343 3-3 3h-113c-1.65685 0-3-1.3431-3-3z"/></clipPath><g clip-path="url(#f)"><path d="m0 3c0-1.65685 1.34315-3 3-3h113c1.657 0 3 1.34315 3 3v14c0 1.6569-1.343 3-3 3h-113c-1.65685 0-3-1.3431-3-3z" fill="#fff"/><path d="m0 0h54v20h-54z" fill="url(#d)"/><g filter="url(#a)"><path d="m7 14.7727 3-1.8182" stroke="#fff"/><path d="m9.5 2.95459v2.27273" stroke="#fff"/><path clip-rule="evenodd" d="m12 5.68176c-.5523 0-1 .44772-1 1v5.27274c0 .5523.4477 1 1 1h5c.5523 0 1-.4477 1-1v-5.27274c0-.55228-.4477-1-1-1zm5 .90909h-5v5.45455h5z" fill="#fff" fill-rule="evenodd"/><path d="m13 6.59088h1v5.45454h-1z" fill="#fff"/><g stroke="#fff"><path d="m12.5 14.3182-3 1.8182-3-1.8182v-2.2727l-2-.9091v-2.27276m8-4.54546-3-1.81818-3 1.81818v2.27273l-2 .90909v1.36364m0 0h2.5"/><path d="m6.5 6.13635 2 1.36364v2.72731"/></g></g><g filter="url(#b)"><path d="m28.3965 7.06445c.2962.32552.5224.72429.6787 1.19629.1595.47201.2393 1.00749.2393 1.60645 0 .59891-.0814 1.13611-.2442 1.61131-.1595.472-.3841.8659-.6738 1.1817-.2995.3287-.6543.5761-1.0645.7421-.4069.1661-.8724.2491-1.3965.2491-.511 0-.9765-.0847-1.3964-.2539-.4167-.1693-.7715-.4151-1.0645-.7373-.293-.3223-.5192-.7178-.6787-1.1866-.1563-.4687-.2344-1.0042-.2344-1.60641 0-.59245.0781-1.12305.2344-1.5918.1562-.472.3841-.87565.6836-1.21094.2865-.31901.6413-.56315 1.0644-.73242.4265-.16927.8903-.25391 1.3916-.25391.5209 0 .988.08627 1.4014.25879.4167.16927.7699.41179 1.0596.72754zm-.0879 2.80274c0-.94401-.2116-1.67155-.6348-2.18262-.4231-.51432-1.0009-.77148-1.7334-.77148-.7389 0-1.32.25716-1.7431.77148-.42.51107-.6299 1.23861-.6299 2.18262 0 .95381.2148 1.68461.6445 2.19241.4297.5045 1.0059.7568 1.7285.7568.7227 0 1.2972-.2523 1.7237-.7568.4297-.5078.6445-1.2386.6445-2.19241zm7.1856.83981c0 .4427-.0635.848-.1904 1.2159-.127.3645-.306.6738-.5371.9277-.2149.2409-.4688.428-.7617.5615-.2898.1302-.5974.1953-.9229.1953-.2832 0-.5404-.0309-.7715-.0928-.2278-.0618-.4606-.1578-.6982-.288v2.2851h-.918v-7.4658h.918v.57129c.2441-.20508.5176-.37598.8203-.5127.306-.13997.6315-.20996.9766-.20996.6575 0 1.1686.24902 1.5332.74707.3678.49479.5517 1.18327.5517 2.0654zm-.9472.0244c0-.6575-.1124-1.14904-.337-1.47456s-.5696-.48829-1.0351-.48829c-.2637 0-.529.05697-.7959.1709-.2669.11394-.5225.26367-.7666.44922v3.09083c.2604.1172.4834.1969.6689.2393.1888.0423.402.0634.6397.0634.511 0 .9098-.1725 1.1963-.5176.2864-.345.4297-.8561.4297-1.5332zm6.8633.1368h-4.0185c0 .3353.0504.6282.1513.8789.1009.2474.2393.4508.4151.6103.1692.1563.3694.2735.6006.3516.2343.0781.4915.1172.7714.1172.3711 0 .7438-.0733 1.1182-.2198.3776-.1497.6462-.2962.8057-.4394h.0488v1.001c-.3093.1302-.625.2392-.9473.3271-.3222.0879-.6608.1319-1.0156.1319-.9049 0-1.6113-.2442-2.1191-.7325-.5079-.4915-.7618-1.1881-.7618-2.0898 0-.89194.2426-1.59995.7276-2.12404.4883-.52408 1.1295-.78613 1.9238-.78613.7357 0 1.3021.21485 1.6992.64453.4004.42969.6006 1.04004.6006 1.83104zm-.8935-.7032c-.0033-.48173-.1254-.85445-.3663-1.11812-.2376-.26368-.6005-.39551-1.0888-.39551-.4916 0-.8838.14485-1.1768.43457-.2897.28971-.4541.64941-.4931 1.07906zm6.7657 3.335h-.918v-3.1055c0-.2506-.0147-.48499-.044-.70309-.0292-.22136-.083-.39388-.1611-.51758-.0814-.13672-.1986-.23763-.3515-.30274-.153-.06836-.3516-.10254-.5958-.10254-.2506 0-.5126.06185-.7861.18555-.2734.1237-.5355.28158-.7861.47363v4.07227h-.918v-5.4541h.918v.60547c.2864-.23763.5827-.42318.8887-.55664.3059-.13347.6201-.2002.9423-.2002.5892 0 1.0384.17741 1.3477.53223.3092.35482.4639.86588.4639 1.5332z" fill="#fff"/></g><path d="m54 0h1v20h-1z" fill="#4800a6"/><path d="m54 0h1v20h-1z" fill="#fff" fill-opacity=".1"/><path d="m0 0h64v20h-64z" fill="#6527b9" transform="translate(55)"/><path d="m0 0h64v20h-64z" fill="url(#e)" transform="translate(55)"/><g filter="url(#c)"><path d="m65.7598 11.4248c0 .2832-.0668.5632-.2002.8398-.1302.2767-.3142.5111-.5518.7032-.2604.2083-.5648.3711-.9131.4883-.345.1171-.7617.1757-1.25.1757-.5241 0-.9961-.0488-1.416-.1464-.4167-.0977-.8415-.2426-1.2744-.4346v-1.211h.0684c.3678.306.7926.542 1.2744.7081.4817.166.9342.249 1.3574.249.599 0 1.0644-.1123 1.3965-.3369.3353-.2246.5029-.5241.5029-.8985 0-.3222-.0797-.5599-.2393-.7129-.1562-.153-.3955-.2718-.7177-.3564-.2442-.0651-.5095-.1188-.7959-.1611-.2832-.0424-.5843-.0961-.9033-.1612-.6446-.1367-1.1231-.36944-1.4356-.69822-.3092-.33203-.4639-.76335-.4639-1.29395 0-.60872.2572-1.10677.7715-1.49414.5143-.39062 1.167-.58593 1.958-.58593.5111 0 .9799.04882 1.4063.14648s.804.2181 1.1328.36133v1.14258h-.0684c-.2767-.23438-.6412-.42806-1.0937-.58106-.4492-.15625-.9098-.23437-1.3818-.23437-.5176 0-.9343.10742-1.25.32226-.3125.21485-.4688.49154-.4688.83008 0 .30274.0781.54037.2344.71289.1562.17253.4313.30436.8252.39551.2083.04557.5045.10091.8886.16602.3842.0651.7097.13183.9766.20019.5404.14323.9473.3597 1.2207.64943.2734.2897.4102.695.4102 1.2158zm4.2315 2.0264c-.1725.0455-.3613.083-.5664.1123-.2018.0293-.3825.0439-.542.0439-.5566 0-.9798-.1497-1.2695-.4492-.2898-.2995-.4346-.7796-.4346-1.4404v-2.90042h-.6201v-.77148h.6201v-1.56738h.918v1.56738h1.8945v.77148h-1.8945v2.48532c0 .2865.0065.5111.0195.6739.013.1595.0586.3092.1367.4492.0716.1302.1693.2262.293.2881.1269.0586.319.0879.5761.0879.1498 0 .306-.0212.4688-.0635.1628-.0456.2799-.083.3516-.1123h.0488zm5.5548.0488h-.918v-.6055c-.3093.2442-.6055.4313-.8887.5616-.2832.1302-.5957.1953-.9375.1953-.5729 0-1.0189-.1742-1.3379-.5225-.319-.3516-.4785-.8659-.4785-1.543v-3.54h.918v3.1055c0 .2767.013.5143.039.7129.0261.1953.0814.3629.1661.5029.0878.1432.2018.2474.3418.3125.1399.0651.3434.0976.6103.0976.2376 0 .4964-.0618.7764-.1855.2832-.1237.5468-.2816.791-.4736v-4.0723h.918zm6.1504 0h-.9179v-.5713c-.2637.2279-.5388.4053-.8252.5322-.2865.127-.5974.1905-.9327.1905-.651 0-1.1686-.2507-1.5527-.752-.3809-.5013-.5713-1.1963-.5713-2.0849 0-.4623.0651-.87407.1953-1.2354.1335-.36133.3125-.66894.5371-.92285.2214-.2474.4786-.4362.7715-.56641.2962-.1302.6022-.19531.918-.19531.2865 0 .5404.03093.7617.09277.2214.0586.4541.15137.6983.27832v-2.36328h.9179zm-.9179-1.3428v-3.12986c-.2474-.11067-.4688-.18717-.6641-.22949s-.4085-.06347-.6397-.06347c-.5143 0-.9147.17903-1.2011.5371-.2865.35808-.4297.86592-.4297 1.52342 0 .6478.1107 1.141.332 1.4795.2214.3353.5762.5029 1.0645.5029.2604 0 .5241-.0569.791-.1709.2669-.1171.5159-.2669.7471-.4492zm3.6309-5.02439h-1.0352v-.95215h1.0352zm-.0586 6.36719h-.918v-5.4541h.918zm6.3848-2.7246c0 .8887-.2278 1.5902-.6836 2.1045-.4557.5143-1.066.7715-1.831.7715-.7715 0-1.3851-.2572-1.8408-.7715-.4525-.5143-.6787-1.2158-.6787-2.1045 0-.88868.2262-1.59018.6787-2.1045.4557-.51758 1.0693-.77637 1.8408-.77637.765 0 1.3753.25879 1.831.77637.4558.51432.6836 1.21582.6836 2.1045zm-.9472 0c0-.7064-.1384-1.23048-.4151-1.57228-.2767-.34505-.6608-.51757-1.1523-.51757-.4981 0-.8854.17252-1.1621.51757-.2735.3418-.4102.86588-.4102 1.57228 0 .6836.1384 1.2028.4151 1.5576.2767.3516.6624.5274 1.1572.5274.4883 0 .8708-.1742 1.1475-.5225.2799-.3516.4199-.8724.4199-1.5625zm10.4015 2.7246h-4.5996v-7.27051h.9668v6.41111h3.6328zm5.052 0h-.913v-.5811c-.082.0554-.192.1335-.332.2344-.137.0977-.27.1758-.401.2344-.153.0749-.328.1367-.527.1855-.199.0521-.431.0782-.698.0782-.492 0-.908-.1628-1.25-.4883s-.513-.7406-.513-1.2451c0-.4134.088-.7471.264-1.001.179-.2572.433-.459.761-.6055.332-.1465.731-.2457 1.197-.2978.465-.05211.965-.09117 1.499-.11722v-.1416c0-.20833-.038-.38086-.113-.51758-.071-.13671-.175-.24414-.312-.32226-.13-.07487-.287-.12533-.469-.15137s-.373-.03906-.571-.03906c-.241 0-.51.03255-.806.09766-.296.06184-.602.15299-.918.27343h-.049v-.93261c.179-.04883.438-.10254.777-.16114.338-.05859.672-.08789 1.001-.08789.384 0 .718.03255 1.001.09766.286.06185.534.16927.742.32226.205.14974.361.34343.469.58106.107.23763.161.53223.161.88379zm-.913-1.3428v-1.5185c-.28.0162-.611.0407-.991.0732-.378.0326-.678.0798-.899.1416-.264.0749-.477.1921-.64.3516-.162.1562-.244.3727-.244.6494 0 .3125.095.5485.284.708.188.1563.476.2344.864.2344.322 0 .617-.0619.884-.1856.266-.1269.514-.2783.742-.4541zm7.4-1.4258c0 .4558-.065.8659-.195 1.2305-.127.3646-.3.6706-.518.918-.231.2571-.485.4508-.761.581-.277.127-.581.1905-.913.1905-.31 0-.58-.0375-.811-.1123-.231-.0717-.459-.1693-.684-.293l-.058.2539h-.86v-7.59766h.918v2.71485c.258-.21159.531-.38412.821-.51758.289-.13672.615-.20508.976-.20508.645 0 1.153.2474 1.524.74219.374.49479.561 1.19303.561 2.09468zm-.947.0245c0-.6511-.107-1.14425-.322-1.47953-.215-.33854-.562-.50782-1.04-.50782-.267 0-.537.0586-.811.17579-.273.11393-.527.26204-.762.44433v3.12503c.261.1172.484.1985.669.2441.189.0456.402.0684.64.0684.508 0 .905-.166 1.191-.4981.29-.3353.435-.8593.435-1.5722z" fill="#fff"/></g></g></svg>